<svg width="1058" height="197" viewBox="0 0 1058 197" fill="none" xmlns="http://www.w3.org/2000/svg">
<g clip-path="url(#clip0_497_624)">
<path d="M560.925 15.1973H557.112C526.188 15.1973 501.685 32.7016 490.343 54.6755C485.944 63.1989 481.107 75.0502 481.966 96.3073V182.679C481.966 187.883 486.212 192.117 491.431 192.117H507.444C512.663 192.117 516.91 187.883 516.91 182.679V91.6513C516.91 64.9197 534.625 49.9787 556.553 49.6945H560.925C566.144 49.6945 570.39 45.4602 570.39 40.2559V24.6359C570.39 19.4315 566.144 15.1973 560.925 15.1973Z" fill="#282828"/>
<path d="M606.6 95.1266C606.973 91.8375 608.029 87.7418 608.049 87.667C614.222 63.075 634.623 47.1847 660.024 47.1838C684.98 47.1847 704.918 63.067 710.818 87.6461L710.844 87.7428C710.85 87.7617 711.398 89.668 711.579 92.4596C711.647 93.5074 711.683 94.4077 711.701 95.1266H606.6ZM746.964 95.1455H746.962C743.405 47.2486 707.121 12.6875 660.023 12.6875C635.651 12.6875 613.153 22.0473 596.674 39.0422C580.32 55.9085 571.313 78.8555 571.313 103.657C571.313 128.631 580.314 151.702 596.657 168.62C613.119 185.66 635.623 195.045 660.023 195.045C677.277 195.045 694.731 193.147 712.985 185.094C717.455 183.122 721.052 181.277 723.737 179.79C727.107 177.923 728.555 173.848 727.091 170.29L720.408 154.045C718.114 148.251 712.312 148.843 709.917 150.124C693.309 159.013 673.129 160.685 660.023 160.339C638.583 159.773 618.592 147.814 609.759 126.104H737.133C741.704 126.104 745.543 122.846 746.261 118.358C746.504 116.843 746.705 115.331 746.86 113.864C747.808 104.911 747.131 97.4695 747.101 97.0119L746.964 95.1455Z" fill="#282828"/>
<path d="M1048.48 157.62H1044.11C1022.19 157.331 1004.47 142.396 1004.47 115.666V55.1861C1011.26 51.2111 1023.82 48.9369 1036.67 48.9369H1041.81C1047.02 48.9369 1051.27 44.7096 1051.27 39.5053V24.64C1051.27 19.4356 1047.02 15.2083 1041.81 15.2083H1037.62C1025.66 15.0608 1011.35 16.9661 1004.47 20.981V9.90429C1004.47 4.69994 1000.22 0.472656 995.004 0.472656H978.987C973.768 0.472656 969.529 4.69994 969.529 9.90429V111.01C968.669 132.266 973.508 144.121 977.907 152.635C989.245 174.609 1013.75 192.116 1044.67 192.116H1048.48C1053.7 192.116 1057.95 187.879 1057.95 182.675V167.062C1057.95 161.857 1053.7 157.62 1048.48 157.62Z" fill="#282828"/>
<path d="M259.313 49.6926C264.532 49.6926 268.778 45.4583 268.778 40.2539V24.6339C268.778 19.4296 264.532 15.1953 259.313 15.1953H255.499C224.575 15.1953 200.073 32.7007 188.73 54.6746C184.331 63.1969 179.494 75.0483 180.354 96.3054V182.678C180.354 187.881 184.599 192.116 189.819 192.116H205.832C211.051 192.116 215.297 187.881 215.297 182.678V91.6494C215.297 64.9178 233.013 49.9777 254.94 49.6926H259.313Z" fill="#282828"/>
<path d="M64.9732 157.764H34.9021V34.1967H64.9732C99.1375 34.1967 126.932 61.9114 126.932 95.9799C126.932 130.047 99.1375 157.764 64.9732 157.764ZM63.8374 0.496094H9.4731C4.25112 0.496094 0.00195312 4.73335 0.00195312 9.94169V182.671C0.00195312 187.88 4.25112 192.117 9.4731 192.117H65.0372C90.8372 192.117 115.071 182.021 133.276 163.69C151.477 145.363 161.362 121.097 161.112 95.3608C160.602 43.0521 116.965 0.496094 63.8374 0.496094Z" fill="#282828"/>
<path d="M314.577 97.2902C308.152 99.007 302.526 102.212 297.971 106.434C291.91 105.049 285.43 105.079 279.005 106.796C257.983 112.412 245.508 133.96 251.141 154.923C263.209 199.836 321.718 194.872 321.734 194.872C321.749 194.864 374.908 169.991 362.84 125.077C357.207 104.114 335.599 91.673 314.577 97.2902Z" fill="#FF1A56"/>
<path d="M896.253 143.888C886.5 153.828 872.226 160.247 857.316 160.397C841.959 160.552 827.971 155.247 817.047 144.915C806.454 134.895 799.361 119.619 799.361 103.861C799.361 71.449 825.554 46.9028 857.178 47.2179C872.714 47.3724 886.203 54.0693 896.43 64.0084C906.884 74.1678 912.884 87.8407 912.884 103.861C912.884 119.88 906.313 133.635 896.253 143.888ZM856.829 12.6758C832.082 12.6758 809.546 21.593 791.947 38.9039C775.055 55.5219 764.681 78.8956 764.681 103.861C764.681 128.799 774.585 151.549 792.323 169.183C809.207 185.969 832.088 195.034 856.829 195.034C878.97 195.034 902.312 185.349 915.613 170.248V182.678C915.613 187.877 919.853 192.105 925.065 192.105H938.111C943.323 192.105 947.563 187.877 947.563 182.678V107.525C948.12 81.4868 939.112 65.1938 937.337 61.9645C923.406 34.1851 892.429 12.6758 856.829 12.6758Z" fill="#282828"/>
<path d="M484.919 24.7671V9.92872C484.919 4.72737 480.676 0.496094 475.46 0.496094H358.065C352.849 0.496094 348.605 4.72737 348.605 9.92872V24.7671C348.605 29.9684 352.849 34.1997 358.065 34.1997H398.957V182.684C398.957 187.884 403.2 192.117 408.415 192.117H424.441C429.657 192.117 433.9 187.884 433.9 182.684V34.1997H475.46C480.676 34.1997 484.919 29.9684 484.919 24.7671Z" fill="#282828"/>
</g>
<defs>
<clipPath id="clip0_497_624">
<rect width="1058" height="196" fill="white" transform="translate(0 0.46875)"/>
</clipPath>
</defs>
</svg>
